# xmcd
#
# Track frame offsets: 
#        150
#        18330
#        32517
#        50440
#        68770
#        89042
#        107425
#        120232
#        135235
#        156545
#        172130
#        186105
#        208185
#        219265
#        237197
#
# Disc length: 3481 seconds
#
# Revision: 0
# Processed by: cddbd v1.5.2PL0 Copyright (c) Steve Scherf et al.
# Submitted via: ExactAudioCopy v1.0b3
#
DISCID=c90d970f
DTITLE=diversos - Casa de Samba 2
DYEAR=1997
DGENRE=Samba
TTITLE0=Zeca Pagodinho e Caetano Veloso - Com que roupa
TTITLE1=Elza Soares e Ney Matogrosso - Tem que rebolar
TTITLE2=Fundo de Quintal e Gabriel o Pensador - Ai que saudades da Ame
TTITLE2=lia
TTITLE3=Timbalada e Lobao - Zazueira
TTITLE4=Jair Rodrigues e Baby do Brasil - Foi um rio que passou em min
TTITLE4=ha vida
TTITLE5=Velha Guarda da Portela e Leila Pinheiro - Lenco
TTITLE6=Alcione e Emilio Santiago - Flor de lis
TTITLE7=Noite Ilustrada e Marcia Freire - Volta por cim
TTITLE8=Beth Carvalho e Belo Veloso - Desde que o samba e samba
TTITLE9=Nei Lopes e Zelia Duncan - Senhora Liberdade
TTITLE10=MPB 4 e Paulo Ricardo - Partido Alto
TTITLE11=Nelson Cavaquinho/Alcides Caminha/Guilherme de Brito - Fagner
TTITLE11=A flor e o espinho - O mundo e um moinho
TTITLE12=Roberto Silva e Fernanda Abreu - Escurinho
TTITLE13=Luiz Melodia e Zizi Possi - Estacio Holly Estacio
TTITLE14=Neguinho da Beija-Flor, Dominguinhos do Estacio, Wander Pires
TTITLE14=e Rixxa - Aquarela Brasileira
EXTD=
EXTT0=
EXTT1=
EXTT2=
EXTT3=
EXTT4=
EXTT5=
EXTT6=
EXTT7=
EXTT8=
EXTT9=
EXTT10=
EXTT11=
EXTT12=
EXTT13=
EXTT14=
PLAYORDER=
